<?xml version="1.0" encoding="utf-8"?>
<!-- Generator: Adobe Illustrator 23.0.3, SVG Export Plug-In . SVG Version: 6.00 Build 0)  -->
<svg version="1.1" id="Ebene_1" xmlns="http://www.w3.org/2000/svg" xmlns:xlink="http://www.w3.org/1999/xlink" x="0px" y="0px"
	 viewBox="0 0 500 68.27" style="enable-background:new 0 0 500 68.27;" xml:space="preserve">
<style type="text/css">
	.st0{fill:#00FF00;}
	.st1{fill:#FFFFFF;}
</style>
<g>
	<path class="st0" d="M74.3,28.26l-0.86-9.17c0.95-0.27,1.65-1.14,1.65-2.18c0-1.25-1.01-2.26-2.26-2.26
		c-0.76,0-1.43,0.38-1.84,0.95L44.12,2.91c0.05-0.19,0.08-0.39,0.08-0.6c0-1.27-1.03-2.3-2.3-2.3c-1.27,0-2.3,1.03-2.3,2.3
		c0,0.07,0,0.13,0.01,0.2L13.38,9.55c-0.38-0.76-1.16-1.29-2.07-1.29c-1.27,0-2.3,1.03-2.3,2.3c0,0.65,0.27,1.24,0.71,1.66
		L3.1,23.52c-0.25-0.09-0.52-0.15-0.8-0.15c-1.27,0-2.3,1.03-2.3,2.3c0,1.27,1.03,2.3,2.3,2.3c0.5,0,0.97-0.16,1.35-0.44L15.3,38.79
		c-0.18,0.29-0.29,0.63-0.29,1c0,1.05,0.85,1.9,1.9,1.9c0.77,0,1.42-0.46,1.72-1.11l11.1,2.44c0.06,0.72,0.65,1.29,1.39,1.29
		c0.21,0,0.41-0.05,0.59-0.14l7.71,8.56c-0.26,0.35-0.43,0.78-0.43,1.26c0,1.16,0.94,2.1,2.1,2.1c0.06,0,0.11-0.01,0.17-0.02
		l2.66,9.41c0.04,0.14,0.15,0.24,0.28,0.28c0.04,0.01,0.07,0.01,0.11,0.01c0.1,0,0.2-0.04,0.28-0.11l5.46-5.22
		c0.29,0.19,0.64,0.31,1.01,0.31c1.01,0,1.83-0.82,1.83-1.83c0-0.09-0.01-0.17-0.03-0.25l11.06-4.2c0.36,0.58,1.01,0.97,1.74,0.97
		c1.14,0,2.06-0.92,2.06-2.06c0-0.74-0.39-1.38-0.98-1.75l6.86-18.31c0.17,0.03,0.34,0.05,0.51,0.05c1.42,0,2.57-1.15,2.57-2.57
		C76.7,29.45,75.64,28.34,74.3,28.26z M50.74,57.13c-0.44,0.08-0.82,0.32-1.09,0.65l-6.54-3.24c0.05-0.18,0.08-0.36,0.08-0.55
		c0-0.58-0.23-1.1-0.61-1.48l8.13-11.94c0.23,0.11,0.48,0.2,0.74,0.25L50.74,57.13z M32.5,42.99l16.8-3.96
		c0.16,0.42,0.42,0.78,0.74,1.08l-8.13,11.94c-0.25-0.11-0.53-0.17-0.83-0.17c-0.39,0-0.76,0.12-1.07,0.3l-7.71-8.57
		C32.42,43.44,32.49,43.22,32.5,42.99z M49.11,37.99c0,0.09,0.01,0.17,0.01,0.26l-16.8,3.96c-0.15-0.26-0.38-0.47-0.66-0.59
		l0.71-6.51c1.4-0.06,2.51-1.21,2.51-2.62c0-1.22-0.83-2.24-1.95-2.54l0.4-3.65c1.19-0.07,2.14-0.99,2.26-2.16l10.72-0.7
		c0.29,1.54,1.64,2.71,3.27,2.71c0.04,0,0.08,0,0.12-0.01l1.45,9.11C49.97,35.6,49.11,36.7,49.11,37.99z M16.91,37.88
		c-0.39,0-0.75,0.12-1.06,0.32L4.21,26.96c0.2-0.3,0.33-0.64,0.37-1.01l26.24-1.52c0.2,0.86,0.85,1.55,1.7,1.79l-0.4,3.65
		c-1.4,0.06-2.51,1.21-2.51,2.62c0,0.26,0.04,0.51,0.11,0.75l-11.32,5.39C18.06,38.18,17.52,37.88,16.91,37.88z M52.86,22.39
		l17.9-4.54c0.33,0.73,1.03,1.25,1.87,1.32l0.86,9.17c-0.72,0.18-1.31,0.67-1.64,1.32l-19.02-6.2c0.04-0.21,0.06-0.42,0.06-0.64
		C52.89,22.67,52.88,22.53,52.86,22.39z M70.64,16.33c-0.05,0.19-0.08,0.38-0.08,0.59c0,0.05,0,0.1,0.01,0.16l-17.91,4.54
		c-0.48-1.24-1.69-2.12-3.1-2.12c-0.27,0-0.53,0.04-0.78,0.1l-5.72-15.3c0.28-0.16,0.52-0.39,0.71-0.65L70.64,16.33z M39.81,3.28
		c0.37,0.78,1.16,1.33,2.08,1.33c0.14,0,0.28-0.01,0.42-0.04l5.72,15.3c-1.01,0.53-1.72,1.56-1.78,2.76l-10.72,0.7
		c-0.25-1.07-1.21-1.86-2.35-1.86c-0.73,0-1.39,0.33-1.83,0.84L13.44,11.47c0.12-0.28,0.18-0.58,0.18-0.9c0-0.08,0-0.16-0.01-0.24
		L39.81,3.28z M10.4,12.67c0.28,0.12,0.59,0.19,0.92,0.19c0.66,0,1.26-0.28,1.68-0.73L30.93,23c-0.08,0.2-0.13,0.41-0.16,0.62
		L4.54,25.14c-0.11-0.48-0.38-0.91-0.74-1.22L10.4,12.67z M18.76,39.35l11.32-5.38c0.35,0.51,0.88,0.89,1.49,1.06l-0.71,6.51
		c-0.41,0.08-0.76,0.34-0.96,0.69l-11.09-2.44c0,0,0,0,0,0C18.81,39.63,18.79,39.49,18.76,39.35z M44.52,64.62l-2.48-8.77
		c0.28-0.14,0.52-0.35,0.71-0.59l6.54,3.24c-0.03,0.14-0.06,0.28-0.06,0.43c0,0.34,0.1,0.66,0.27,0.94L44.52,64.62z M52.59,57.92
		c-0.24-0.36-0.61-0.63-1.04-0.75l0.72-16.31c0.48-0.05,0.93-0.21,1.31-0.47l10.46,11.76c-0.26,0.35-0.42,0.77-0.42,1.24
		c0,0.12,0.02,0.23,0.03,0.34L52.59,57.92z M66.01,51.35c-0.11-0.02-0.22-0.03-0.33-0.03c-0.38,0-0.73,0.11-1.04,0.29L54.18,39.85
		c0.43-0.5,0.68-1.15,0.68-1.86c0-1.59-1.29-2.88-2.88-2.88c-0.02,0-0.03,0-0.05,0l-1.45-9.11c0.93-0.27,1.69-0.93,2.09-1.79
		l19.03,6.2c-0.02,0.13-0.03,0.26-0.03,0.4c0,0.96,0.52,1.79,1.3,2.23L66.01,51.35z"/>
</g>
<g>
	<path class="st1" d="M141.42,24.7c0,1.52-0.24,3.06-0.74,4.62c-0.49,1.56-1.2,2.98-2.12,4.25c-0.92,1.27-2.04,2.33-3.35,3.17
		c-1.31,0.84-2.81,1.3-4.49,1.38H94.23c-0.82,0-1.52-0.29-2.09-0.86c-0.57-0.57-0.86-1.27-0.86-2.09V14.24
		c0-0.82,0.29-1.52,0.86-2.09c0.58-0.57,1.27-0.86,2.09-0.86h35.88c1.76,0,3.34,0.41,4.74,1.23c1.4,0.82,2.59,1.88,3.57,3.17
		c0.98,1.29,1.73,2.73,2.24,4.31C141.17,21.58,141.42,23.14,141.42,24.7z M97.18,17.2v15.02h31.63c1.4,0,2.54-0.26,3.45-0.77
		c0.9-0.51,1.61-1.14,2.12-1.88c0.51-0.74,0.86-1.55,1.05-2.43c0.18-0.88,0.27-1.69,0.27-2.43c0-0.74-0.09-1.55-0.27-2.43
		c-0.19-0.88-0.54-1.69-1.05-2.43c-0.52-0.74-1.22-1.36-2.12-1.88c-0.9-0.51-2.05-0.77-3.45-0.77H97.18z"/>
	<path class="st1" d="M152.62,37.26c-0.57,0.57-1.27,0.86-2.09,0.86c-0.82,0-1.52-0.29-2.09-0.86c-0.57-0.57-0.86-1.27-0.86-2.09
		V14.24c0-0.82,0.29-1.52,0.86-2.09c0.58-0.57,1.27-0.86,2.09-0.86c0.82,0,1.52,0.29,2.09,0.86c0.58,0.58,0.86,1.27,0.86,2.09v20.92
		C153.49,35.99,153.2,36.68,152.62,37.26z"/>
	<path class="st1" d="M164.69,37.26c-0.57,0.57-1.27,0.86-2.09,0.86c-0.82,0-1.52-0.29-2.09-0.86c-0.57-0.57-0.86-1.27-0.86-2.09
		V14.24c0-0.82,0.29-1.52,0.86-2.09c0.58-0.57,1.27-0.86,2.09-0.86c0.41,0,0.78,0.08,1.11,0.25c0.33,0.16,0.65,0.37,0.98,0.61
		c2.63,2.3,4.89,4.1,6.8,5.42c1.91,1.31,3.65,2.3,5.23,2.95c1.58,0.66,3.07,1.07,4.46,1.23c1.4,0.16,2.89,0.25,4.49,0.25
		s3.09-0.07,4.46-0.22c1.37-0.14,2.83-0.54,4.37-1.2c1.54-0.66,3.26-1.64,5.17-2.95c1.91-1.31,4.19-3.14,6.86-5.48
		c0.7-0.57,1.39-0.86,2.09-0.86c0.82,0,1.52,0.29,2.09,0.86c0.57,0.58,0.86,1.27,0.86,2.09v20.92c0,0.82-0.29,1.52-0.86,2.09
		c-0.58,0.57-1.27,0.86-2.09,0.86c-0.82,0-1.52-0.29-2.09-0.86c-0.58-0.57-0.86-1.27-0.86-2.09V20.58
		c-1.85,1.48-3.62,2.71-5.32,3.69c-1.7,0.98-3.36,1.78-4.98,2.37c-1.62,0.6-3.23,1.02-4.83,1.26c-1.6,0.25-3.22,0.37-4.86,0.37
		c-1.76,0-3.46-0.12-5.08-0.37c-1.62-0.25-3.24-0.67-4.86-1.26c-1.62-0.59-3.26-1.38-4.92-2.37c-1.66-0.98-3.42-2.22-5.26-3.69
		v14.58C165.55,35.99,165.26,36.68,164.69,37.26z M181.86,35.16c0-1.07,0.37-1.97,1.11-2.71c0.74-0.74,1.64-1.11,2.71-1.11
		s1.97,0.37,2.71,1.11c0.74,0.74,1.11,1.64,1.11,2.71c0,1.07-0.37,1.97-1.11,2.71s-1.64,1.11-2.71,1.11s-1.97-0.37-2.71-1.11
		C182.22,37.13,181.86,36.23,181.86,35.16z"/>
	<path class="st1" d="M230.41,17.2c-1.44,0-2.6,0.26-3.48,0.77c-0.88,0.51-1.58,1.14-2.09,1.88c-0.52,0.74-0.86,1.55-1.05,2.43
		c-0.19,0.88-0.28,1.69-0.28,2.43c0,0.74,0.09,1.55,0.28,2.43c0.18,0.88,0.53,1.69,1.05,2.43c0.51,0.74,1.21,1.36,2.09,1.88
		c0.88,0.52,2.04,0.77,3.48,0.77h33.91c0.82,0,1.52,0.29,2.09,0.86c0.57,0.57,0.86,1.27,0.86,2.09c0,0.82-0.29,1.52-0.86,2.09
		c-0.58,0.57-1.27,0.86-2.09,0.86h-35.88c-1.68,0-3.18-0.41-4.49-1.23c-1.31-0.82-2.43-1.88-3.35-3.17
		c-0.93-1.29-1.63-2.74-2.12-4.34c-0.49-1.6-0.74-3.16-0.74-4.68c0-1.56,0.26-3.13,0.77-4.71c0.51-1.58,1.26-3.02,2.25-4.31
		s2.18-2.35,3.57-3.17c1.4-0.82,2.98-1.23,4.74-1.23h35.26c0.82,0,1.52,0.29,2.09,0.86c0.57,0.58,0.86,1.27,0.86,2.09
		c0,0.82-0.29,1.52-0.86,2.09c-0.58,0.58-1.27,0.86-2.09,0.86H230.41z M263.82,22.61c0.57,0.58,0.86,1.27,0.86,2.09
		c0,0.82-0.29,1.52-0.86,2.09c-0.58,0.58-1.27,0.86-2.09,0.86h-30.64c-0.82,0-1.52-0.29-2.09-0.86c-0.58-0.57-0.86-1.27-0.86-2.09
		c0-0.82,0.29-1.52,0.86-2.09c0.57-0.57,1.27-0.86,2.09-0.86h30.64C262.55,21.75,263.25,22.04,263.82,22.61z"/>
	<path class="st1" d="M315.05,22.27c-0.18-0.88-0.53-1.69-1.05-2.43c-0.51-0.74-1.22-1.36-2.12-1.88c-0.9-0.51-2.05-0.77-3.45-0.77
		h-22.21c-1.44,0-2.6,0.26-3.48,0.77c-0.88,0.51-1.58,1.14-2.09,1.88c-0.52,0.74-0.86,1.55-1.05,2.43
		c-0.18,0.88-0.27,1.69-0.27,2.43v10.46c0,0.82-0.29,1.52-0.86,2.09c-0.57,0.57-1.27,0.86-2.09,0.86c-0.82,0-1.52-0.29-2.09-0.86
		c-0.57-0.57-0.86-1.27-0.86-2.09V24.7c0-1.56,0.26-3.13,0.77-4.71c0.51-1.58,1.26-3.02,2.25-4.31s2.18-2.35,3.57-3.17
		c1.4-0.82,2.98-1.23,4.74-1.23h25.78c1.68,0.08,3.18,0.54,4.49,1.38c1.31,0.84,2.43,1.9,3.35,3.17c0.92,1.27,1.63,2.69,2.12,4.25
		c0.49,1.56,0.74,3.1,0.74,4.62v10.46c0,0.82-0.29,1.52-0.86,2.09c-0.58,0.57-1.27,0.86-2.09,0.86c-0.82,0-1.52-0.29-2.09-0.86
		c-0.58-0.57-0.86-1.27-0.86-2.09V24.7C315.33,23.96,315.24,23.15,315.05,22.27z"/>
	<path class="st1" d="M332.38,27.01c-0.98-0.43-1.85-1.01-2.59-1.75s-1.32-1.6-1.75-2.58c-0.43-0.99-0.65-2.05-0.65-3.2
		c0-1.15,0.22-2.22,0.65-3.2s1.01-1.85,1.75-2.59c0.74-0.74,1.6-1.32,2.59-1.75c0.99-0.43,2.05-0.65,3.2-0.65h37.35
		c0.82,0,1.52,0.29,2.09,0.86c0.57,0.58,0.86,1.27,0.86,2.09c0,0.82-0.29,1.52-0.86,2.09c-0.58,0.58-1.27,0.86-2.09,0.86h-37.48
		c-0.61,0-1.16,0.22-1.63,0.65c-0.47,0.43-0.71,0.98-0.71,1.63c0,0.61,0.24,1.15,0.71,1.6c0.47,0.45,1.02,0.68,1.63,0.68h34.03
		c1.15,0,2.23,0.22,3.23,0.65c1,0.43,1.88,1.01,2.62,1.75s1.32,1.61,1.75,2.62c0.43,1.01,0.65,2.08,0.65,3.23
		c0,1.15-0.22,2.22-0.65,3.2s-1.01,1.84-1.75,2.58s-1.61,1.31-2.62,1.72c-1.01,0.41-2.08,0.61-3.23,0.61h-37.29
		c-0.82,0-1.52-0.29-2.09-0.86c-0.58-0.57-0.86-1.27-0.86-2.09c0-0.82,0.28-1.52,0.86-2.09c0.58-0.57,1.27-0.86,2.09-0.86h37.54
		c0.62,0,1.15-0.22,1.6-0.65s0.68-0.95,0.68-1.57c0-0.66-0.23-1.21-0.68-1.66c-0.45-0.45-0.98-0.68-1.6-0.68h-34.16
		C334.43,27.66,333.36,27.44,332.38,27.01z"/>
	<path class="st1" d="M388.93,37.26c-0.57,0.57-1.27,0.86-2.09,0.86c-0.82,0-1.52-0.29-2.09-0.86c-0.57-0.57-0.86-1.27-0.86-2.09
		V14.24c0-0.82,0.29-1.52,0.86-2.09c0.58-0.57,1.27-0.86,2.09-0.86c0.82,0,1.52,0.29,2.09,0.86c0.58,0.58,0.86,1.27,0.86,2.09v20.92
		C389.79,35.99,389.5,36.68,388.93,37.26z"/>
	<path class="st1" d="M446.03,24.7c0,1.56-0.26,3.13-0.77,4.71c-0.51,1.58-1.26,3.02-2.25,4.31c-0.98,1.29-2.18,2.35-3.57,3.17
		c-1.4,0.82-2.98,1.23-4.74,1.23h-28.06c-1.68-0.08-3.18-0.54-4.49-1.38c-1.31-0.84-2.43-1.9-3.35-3.17
		c-0.93-1.27-1.63-2.69-2.12-4.25c-0.49-1.56-0.74-3.1-0.74-4.62c0-1.56,0.26-3.13,0.77-4.71c0.51-1.58,1.26-3.02,2.25-4.31
		s2.18-2.35,3.57-3.17c1.4-0.82,2.98-1.23,4.74-1.23h28.06c1.68,0.08,3.18,0.54,4.49,1.38c1.31,0.84,2.43,1.9,3.35,3.17
		c0.92,1.27,1.63,2.69,2.12,4.25C445.79,21.65,446.03,23.19,446.03,24.7z M436.86,31.44c0.9-0.51,1.61-1.14,2.12-1.88
		c0.51-0.74,0.86-1.55,1.05-2.43c0.18-0.88,0.27-1.69,0.27-2.43c0-0.74-0.09-1.55-0.27-2.43c-0.19-0.88-0.54-1.69-1.05-2.43
		c-0.52-0.74-1.22-1.36-2.12-1.88c-0.9-0.51-2.05-0.77-3.45-0.77h-24.86c-1.44,0-2.6,0.26-3.48,0.77c-0.88,0.51-1.58,1.14-2.09,1.88
		c-0.52,0.74-0.86,1.55-1.05,2.43c-0.19,0.88-0.28,1.69-0.28,2.43c0,0.74,0.09,1.55,0.28,2.43c0.18,0.88,0.53,1.69,1.05,2.43
		c0.51,0.74,1.21,1.36,2.09,1.88c0.88,0.52,2.04,0.77,3.48,0.77h24.86C434.81,32.21,435.96,31.96,436.86,31.44z"/>
	<path class="st1" d="M493.82,22.27c-0.18-0.88-0.53-1.69-1.05-2.43c-0.51-0.74-1.22-1.36-2.12-1.88c-0.9-0.51-2.05-0.77-3.45-0.77
		h-22.21c-1.44,0-2.6,0.26-3.48,0.77c-0.88,0.51-1.58,1.14-2.09,1.88c-0.52,0.74-0.86,1.55-1.05,2.43
		c-0.18,0.88-0.27,1.69-0.27,2.43v10.46c0,0.82-0.29,1.52-0.86,2.09c-0.57,0.57-1.27,0.86-2.09,0.86c-0.82,0-1.52-0.29-2.09-0.86
		c-0.57-0.57-0.86-1.27-0.86-2.09V24.7c0-1.56,0.26-3.13,0.77-4.71c0.51-1.58,1.26-3.02,2.25-4.31c0.99-1.29,2.18-2.35,3.57-3.17
		c1.4-0.82,2.98-1.23,4.74-1.23h25.78c1.68,0.08,3.18,0.54,4.49,1.38c1.31,0.84,2.43,1.9,3.35,3.17c0.92,1.27,1.63,2.69,2.12,4.25
		c0.49,1.56,0.74,3.1,0.74,4.62v10.46c0,0.82-0.29,1.52-0.86,2.09c-0.58,0.57-1.27,0.86-2.09,0.86c-0.82,0-1.52-0.29-2.09-0.86
		c-0.58-0.57-0.86-1.27-0.86-2.09V24.7C494.09,23.96,494,23.15,493.82,22.27z"/>
</g>
<g>
	<path class="st0" d="M107.91,54.58H94.34v11.27h13.57v-3.84l3.67,0.57v1.89c0,1.47-0.33,2.47-1,3s-1.92,0.8-3.77,0.8H95.39
		c-1.85,0-3.1-0.26-3.75-0.77c-0.65-0.51-0.98-1.52-0.98-3.03v-8.47c0-1.49,0.33-2.5,0.99-3.03c0.66-0.53,1.9-0.79,3.73-0.79h11.42
		c1.85,0,3.11,0.27,3.77,0.81c0.66,0.54,1,1.54,1,3.01v1.52l-3.67,0.5V54.58z"/>
	<path class="st0" d="M128.09,56.01c0-1.47,0.34-2.47,1.01-3.01c0.67-0.54,1.92-0.81,3.76-0.81h14.03c1.84,0,3.09,0.27,3.76,0.81
		c0.67,0.54,1.01,1.54,1.01,3.01v8.47c0,1.47-0.33,2.47-1,3s-1.92,0.8-3.77,0.8h-14.03c-1.86,0-3.12-0.26-3.78-0.79
		c-0.66-0.53-0.99-1.53-0.99-3.01V56.01z M131.76,65.85h16.23V54.58h-16.23V65.85z"/>
	<path class="st0" d="M182.05,52.19c1.85,0,3.41,0.1,4.67,0.31c1.26,0.2,2.3,0.52,3.12,0.94c1.33,0.69,2.37,1.63,3.11,2.83
		c0.75,1.19,1.12,2.5,1.12,3.94c0,2.7-0.99,4.73-2.98,6.07c-1.99,1.34-5,2.01-9.05,2.01h-11.19V52.19H182.05z M181.65,54.58h-7.12
		v11.27h7.12c3.16,0,5.41-0.44,6.75-1.32c1.34-0.88,2-2.34,2-4.36c0-1.98-0.67-3.4-2.03-4.27
		C187.03,55.02,184.78,54.58,181.65,54.58z"/>
	<path class="st0" d="M211.95,68.27V52.19h19.56v2.39h-15.89v4.13h9.58v2.39h-9.58v4.82h16.07v2.35H211.95z"/>
</g>
</svg>
